<!DOCTYPE svg PUBLIC "-//W3C//DTD SVG 1.1//EN" "http://www.w3.org/Graphics/SVG/1.1/DTD/svg11.dtd">
<!-- Uploaded to: SVG Repo, www.svgrepo.com, Transformed by: SVG Repo Mixer Tools -->
<svg fill="#ffffff" height="800px" width="800px" version="1.1" id="Layer_1" xmlns="http://www.w3.org/2000/svg" xmlns:xlink="http://www.w3.org/1999/xlink" viewBox="-50.35 -50.35 604.19 604.19" xml:space="preserve" stroke="#ffffff">
<g id="SVGRepo_bgCarrier" stroke-width="0">
<rect x="-50.35" y="-50.35" width="604.19" height="604.19" rx="0" fill="#8a1254" strokewidth="0"/>
</g>
<g id="SVGRepo_tracerCarrier" stroke-linecap="round" stroke-linejoin="round"/>
<g id="SVGRepo_iconCarrier"> <g> <g> <g> <polygon points="220.047,247.161 123.509,150.624 111.435,162.69 207.972,259.236 "/> <polygon points="51.096,223.027 39.03,235.094 135.568,331.64 147.634,319.565 "/> <path d="M6.675,267.773c-4.258,4.25-6.596,9.907-6.596,15.923c0,6.007,2.338,11.665,6.596,15.915l58.479,58.479 c5.914,5.914,13.781,9.173,22.144,9.173c8.371,0,16.23-3.26,22.144-9.173l14.063-14.063l-96.538-96.538L6.675,267.773z"/> <polygon points="195.91,271.299 99.363,174.753 63.165,210.96 159.703,307.506 "/> <path d="M146.008,393.614c-6.016,6.007-9.318,14.003-9.318,22.502c0,8.499,3.302,16.486,9.318,22.494l58.411,58.428 c4.309,4.301,9.967,6.451,15.625,6.451c5.658,0,11.324-2.15,15.633-6.46l20.574-20.582l-96.538-96.538L146.008,393.614z"/> <polygon points="244.182,295.438 340.719,391.976 352.794,379.909 256.256,283.363 "/> <polygon points="171.778,367.842 268.316,464.38 280.39,452.314 183.844,355.776 "/> <polygon points="195.912,343.709 292.45,440.247 328.657,404.048 232.119,307.502 "/> <path d="M401.066,51.172c-13.688,0-26.547,5.316-36.207,14.967c-9.651,9.66-14.967,22.519-14.967,36.207 c0,13.696,5.316,26.547,14.967,36.207c9.66,9.651,22.519,14.967,36.207,14.967c13.687,0,26.547-5.316,36.207-14.967 c9.651-9.66,14.967-22.511,14.967-36.207c0-13.688-5.316-26.547-14.967-36.207C427.613,56.488,414.754,51.172,401.066,51.172z"/> <path d="M473.478,29.939c-37.385-37.385-96.734-39.757-136.917-7.125c-17.775-4.847-36.949-0.034-50.142,13.158l-90.505,90.513 l-9.207-9.208c-7.97-7.979-21.879-7.979-29.858,0l-21.274,21.274l96.538,96.546l15.258-15.258 c11.554-11.554,11.554-30.344,0-41.899l-3.191-3.183l55.962-55.962c3.311,20.497,12.749,40.183,28.518,55.962 c15.77,15.77,35.465,25.207,55.962,28.518l-55.962,55.953l-2.944-2.944c-11.682-11.691-30.703-11.682-42.385,0l-15.01,15.01 l96.538,96.546l21.803-21.803c3.849-3.84,5.965-8.96,5.965-14.404c0-5.436-2.116-10.556-5.965-14.404l-9.728-9.728l90.513-90.513 c13.184-13.193,18.014-32.367,13.15-50.142C513.227,126.665,510.854,67.324,473.478,29.939z M449.338,150.618 c-13.312,13.312-30.788,19.959-48.273,19.959s-34.961-6.647-48.265-19.959c-26.624-26.615-26.624-69.922,0-96.538 c26.615-26.624,69.922-26.624,96.538,0C475.953,80.696,475.953,124.002,449.338,150.618z"/> </g> </g> </g> </g>
</svg>